<?xml version="1.0" encoding="UTF-8" standalone="no"?>
<!DOCTYPE svg PUBLIC "-//W3C//DTD SVG 1.1//EN" "http://www.w3.org/Graphics/SVG/1.1/DTD/svg11.dtd">
<svg xmlns="http://www.w3.org/2000/svg" xmlns:dc="http://purl.org/dc/elements/1.1/" version="1.1" xmlns:xl="http://www.w3.org/1999/xlink" viewBox="83.62207 111.96853 401.811 136.79216" width="401.811" height="136.79216">
  <defs>
    <clipPath id="artboard_clip_path">
      <path d="M 83.62207 111.96853 L 485.43307 111.96853 L 485.43307 248.76068 L 83.62207 248.76068 Z"/>
    </clipPath>
  </defs>
  <metadata> Produced by OmniGraffle 7.18.5\n2021-08-02 13:28:21 +0000</metadata>
  <g id="White" fill="none" fill-opacity="1" stroke="none" stroke-dasharray="none" stroke-opacity="1">
    <title>White</title>
    <g id="White_Layer_1" clip-path="url(#artboard_clip_path)">
      <title>Layer 1</title>
      <g id="Graphic_8"/>
      <g id="Graphic_7"/>
      <g id="Graphic_6">
        <rect x="85.03937" y="113.38583" width="205.5118" height="85.03937" stroke="white" stroke-linecap="round" stroke-linejoin="miter" stroke-width="2.8346"/>
      </g>
      <g id="Graphic_3"/>
      <g id="Group_29">
        <g id="Graphic_25">
          <path d="M 352.54048 132.19968 L 352.54048 127.63523 L 362.04048 127.63523 L 362.04048 147.45163 L 352.54048 147.45163 C 351.3777 144.16125 349.39238 141.53888 346.58442 139.58444 C 343.77646 137.63 340.65312 136.6528 337.2143 136.6528 C 334.0229 136.6528 331.1964 137.3888 328.7348 138.86081 C 326.2732 140.33282 324.37447 142.41093 323.03852 145.09519 C 321.70258 147.77945 321.0346 150.90279 321.0346 154.4653 C 321.0346 160.52653 322.50042 165.3074 325.43208 168.80808 C 328.36373 172.30875 332.39006 174.05905 337.51118 174.05905 C 340.9005 174.05905 343.6837 173.26121 345.8608 171.6655 C 348.0379 170.06979 349.5841 167.77522 350.49946 164.78171 L 340.62837 164.78171 L 340.62837 155.28171 L 366.9389 155.28171 C 366.9389 161.36768 365.73287 166.5753 363.32075 170.90476 C 360.90863 175.2342 357.4451 178.5369 352.93012 180.81296 C 348.41513 183.08901 343.01577 184.22702 336.7319 184.22702 C 330.3985 184.22702 324.8631 183.07664 320.12544 180.77585 C 315.3878 178.47506 311.7449 175.15999 309.19673 170.83054 C 306.64854 166.50109 305.37446 161.36768 305.37446 155.43015 C 305.37446 149.86371 306.6671 144.90348 309.2524 140.54929 C 311.8377 136.1951 315.3816 132.79963 319.88423 130.36277 C 324.38685 127.9259 329.4708 126.70749 335.13618 126.70749 C 342.60757 126.70749 348.40894 128.5382 352.54048 132.19968 Z" fill="white"/>
        </g>
        <g id="Graphic_26">
          <path d="M 414.58735 164.03952 C 414.58735 167.92366 413.672 171.42427 411.84126 174.54148 C 410.0105 177.65868 407.5366 180.0955 404.4194 181.85202 C 401.3022 183.60854 397.8758 184.48679 394.1401 184.48679 C 390.18173 184.48679 386.644 183.60854 383.5268 181.85202 C 380.4096 180.0955 377.97896 177.65868 376.2348 174.54148 C 374.49066 171.42427 373.6186 167.92366 373.6186 164.03952 C 373.6186 160.18013 374.5154 156.70425 376.30903 153.61179 C 378.10266 150.51933 380.5704 148.08869 383.71235 146.3198 C 386.8543 144.5509 390.33017 143.66648 394.1401 143.66648 C 398.0242 143.66648 401.52484 144.5509 404.64204 146.3198 C 407.75924 148.08869 410.19607 150.51933 411.9526 153.61179 C 413.7091 156.70425 414.58735 160.18013 414.58735 164.03952 Z M 394.06587 174.80124 C 396.49036 174.80124 398.3891 173.85496 399.76216 171.96237 C 401.1352 170.06979 401.82173 167.35464 401.82173 163.81687 C 401.82173 160.50175 401.1352 157.9103 399.76216 156.04245 C 398.3891 154.1746 396.4656 153.2407 393.99165 153.2407 C 391.49294 153.2407 389.6004 154.16224 388.3139 156.00534 C 387.02745 157.84845 386.38423 160.62544 386.38423 164.3364 C 386.38423 167.47834 387.0831 170.00794 388.4809 171.92527 C 389.8787 173.8426 391.74033 174.80124 394.06587 174.80124 Z" fill="white"/>
        </g>
        <g id="Graphic_27">
          <path d="M 441.56587 174.57859 L 441.56587 183.55905 L 417.4819 183.55905 L 417.4819 174.57859 L 423.5678 174.57859 L 423.5678 136.57859 L 417.4819 136.57859 L 417.4819 127.63523 L 436.03657 127.63523 L 436.03657 174.57859 Z" fill="white"/>
        </g>
        <g id="Graphic_28">
          <path d="M 479.269 132.12546 L 470.2885 139.17624 C 469.8432 137.76608 469.34224 136.70229 468.7856 135.98484 C 468.22895 135.26738 467.5672 134.90866 466.80024 134.90866 C 465.68695 134.90866 464.86437 135.36634 464.33247 136.28171 C 463.80056 137.19708 463.5346 138.61959 463.5346 140.54929 L 463.5346 144.5571 L 470.43696 144.5571 L 470.43696 153.686 L 463.5346 153.686 L 463.5346 174.57859 L 470.80805 174.57859 L 470.80805 183.55905 L 445.42524 183.55905 L 445.42524 174.57859 L 451.1401 174.57859 L 451.1401 153.686 L 445.90766 153.686 L 445.90766 144.5571 L 451.1401 144.5571 L 451.1401 140.54929 C 451.1401 136.29406 452.42035 132.91095 454.9809 130.39987 C 457.54146 127.8888 461.2709 126.63327 466.1694 126.63327 C 472.30483 126.63327 476.6713 128.46398 479.269 132.12546 Z" fill="white"/>
        </g>
      </g>
      <g id="Group_41">
        <g id="Graphic_38">
          <path d="M 151.6253 142.88718 C 151.6253 146.30126 150.82746 149.17102 149.23175 151.49655 C 147.63604 153.82209 145.21777 155.71465 141.97687 157.17429 L 150.99445 174.05905 L 158.23078 174.05905 L 158.23078 183.55905 L 141.19757 183.55905 L 128.58039 159.10398 L 122.19757 159.10398 L 122.19757 174.05905 L 129.21124 174.05905 L 129.21124 183.55905 L 99.93195 183.55905 L 99.93195 174.05905 L 107.61359 174.05905 L 107.61359 137.13523 L 99.93195 137.13523 L 99.93195 127.63523 L 131.84601 127.63523 C 138.03094 127.63523 142.87366 128.94023 146.37433 131.55027 C 149.875 134.1603 151.6253 137.93924 151.6253 142.88718 Z M 136.41046 143.51804 C 136.41046 141.39042 135.73013 139.79474 134.36945 138.73093 C 133.00876 137.66712 131.15331 137.13523 128.80304 137.13523 L 122.19757 137.13523 L 122.19757 150.1235 L 127.54132 150.1235 C 133.45411 150.1235 136.41046 147.9217 136.41046 143.51804 Z" fill="white"/>
        </g>
        <g id="Graphic_39">
          <path d="M 199.34796 150.1235 L 199.34796 137.13523 L 190.66437 137.13523 L 190.66437 174.05905 L 199.01398 174.05905 L 199.01398 183.55905 L 167.65656 183.55905 L 167.65656 174.05905 L 176.1546 174.05905 L 176.1546 137.13523 L 167.65656 137.13523 L 167.65656 150.1235 L 158.15656 150.1235 L 158.15656 127.63523 L 208.77374 127.63523 L 208.77374 150.1235 Z" fill="white"/>
        </g>
        <g id="Graphic_40">
          <path d="M 235.4925 137.13523 L 235.4925 174.05905 L 242.02374 174.05905 L 242.02374 183.55905 L 213.44953 183.55905 L 213.44953 174.05905 L 220.9085 174.05905 L 220.9085 137.13523 L 213.44953 137.13523 L 213.44953 127.63523 L 242.58039 127.63523 L 242.58039 137.13523 Z M 268.03742 137.13523 L 252.22882 152.4614 L 270.59796 174.05905 L 276.38703 174.05905 L 276.38703 183.55905 L 246.36554 183.55905 L 246.36554 174.05905 L 252.8968 174.05905 L 235.97492 154.20554 L 254.19562 137.13523 L 247.51593 137.13523 L 247.51593 127.63523 L 274.86554 127.63523 L 274.86554 137.13523 Z" fill="white"/>
        </g>
      </g>
      <g id="Group_65">
        <g id="Graphic_42">
          <path d="M 101.87775 219.55463 C 101.87775 221.46577 101.28864 223.01507 100.11041 224.20258 C 98.93219 225.39008 96.93758 225.9931 94.12653 226.01166 L 91.37116 226.01166 L 91.37116 231.4389 L 94.0987 231.4389 L 94.0987 234.05512 L 85.58209 234.05512 L 85.58209 231.4389 L 88.1983 231.4389 L 88.1983 215.6999 L 85.58209 215.6999 L 85.58209 213.08368 L 93.38898 213.08368 C 95.49495 213.08368 97.16717 213.31097 98.4057 213.76557 C 99.64423 214.22016 100.53253 214.91363 101.07062 215.846 C 101.60871 216.7784 101.87775 218.01458 101.87775 219.55463 Z M 98.66315 219.48505 C 98.66315 218.17694 98.27814 217.21906 97.50812 216.6114 C 96.7381 216.00372 95.42073 215.6999 93.55597 215.6999 L 91.37116 215.6999 L 91.37116 223.47895 L 93.33331 223.47895 C 94.62287 223.47895 95.65265 223.36066 96.42267 223.12409 C 97.19269 222.8875 97.75861 222.47931 98.12042 221.89948 C 98.48224 221.31964 98.66315 220.51484 98.66315 219.48505 Z" fill="white"/>
        </g>
        <g id="Graphic_43">
          <path d="M 109.07233 228.18256 L 109.07233 231.49457 L 112.2591 231.49457 L 112.2591 234.05512 L 103.28327 234.05512 L 103.28327 231.49457 L 106.21955 231.49457 L 106.21955 222.00385 L 103.28327 222.00385 L 103.28327 219.42938 L 108.50177 219.42938 L 108.50177 222.7414 C 109.08625 221.43328 109.81219 220.5218 110.67963 220.0069 C 111.54706 219.492 112.7879 219.23456 114.40216 219.23456 L 115.05622 219.23456 L 115.05622 222.143 L 114.43 222.143 C 112.87139 222.143 111.71174 222.3471 110.95099 222.7553 C 110.19024 223.16352 109.68695 223.78045 109.4411 224.60614 C 109.19525 225.43183 109.07233 226.62396 109.07233 228.18256 Z" fill="white"/>
        </g>
        <g id="Graphic_44">
          <path d="M 130.30817 226.76312 C 130.30817 228.18257 129.96955 229.48138 129.2923 230.6596 C 128.61505 231.83784 127.69196 232.7702 126.52301 233.45673 C 125.35406 234.14326 124.05988 234.4865 122.64044 234.4865 C 121.17462 234.4865 119.85261 234.14326 118.67438 233.45673 C 117.49615 232.7702 116.58002 231.83784 115.92597 230.6596 C 115.27191 229.48138 114.94489 228.18257 114.94489 226.76312 C 114.94489 225.27874 115.27191 223.9521 115.92597 222.78314 C 116.58002 221.6142 117.49151 220.69806 118.66046 220.03473 C 119.82941 219.3714 121.15606 219.03974 122.64044 219.03974 C 124.07844 219.03974 125.3819 219.38995 126.55084 220.0904 C 127.7198 220.79084 128.63824 221.73016 129.30622 222.9084 C 129.97419 224.08662 130.30817 225.37152 130.30817 226.76312 Z M 122.64044 231.6894 C 123.49396 231.6894 124.27789 231.46674 124.99225 231.02143 C 125.70661 230.5761 126.26324 229.97773 126.66217 229.22626 C 127.0611 228.4748 127.26056 227.65375 127.26056 226.76312 C 127.26056 225.89105 127.0611 225.0793 126.66217 224.32782 C 126.26324 223.57635 125.70661 222.971 124.99225 222.51178 C 124.27789 222.05255 123.48469 221.82294 122.61261 221.82294 C 121.75909 221.82294 120.97516 222.0479 120.2608 222.49787 C 119.54645 222.94782 118.98517 223.55316 118.57697 224.3139 C 118.16876 225.07465 117.96466 225.89105 117.96466 226.76312 C 117.96466 227.6352 118.16876 228.4516 118.57697 229.21234 C 118.98517 229.9731 119.55108 230.5761 120.27472 231.02143 C 120.99836 231.46674 121.78692 231.6894 122.64044 231.6894 Z" fill="white"/>
        </g>
        <g id="Graphic_45">
          <path d="M 154.45246 220.7514 L 154.45246 215.6999 L 150.12457 215.6999 L 150.12457 231.4389 L 152.85211 231.4389 L 152.85211 234.05512 L 144.27985 234.05512 L 144.27985 231.4389 L 146.95172 231.4389 L 146.95172 215.6999 L 142.65167 215.6999 L 142.65167 220.7514 L 140.0633 220.7514 L 140.0633 213.08368 L 157.04083 213.08368 L 157.04083 220.7514 Z" fill="white"/>
        </g>
        <g id="Graphic_46">
          <path d="M 172.98859 226.76312 C 172.98859 228.18257 172.64997 229.48138 171.97272 230.6596 C 171.29547 231.83784 170.37238 232.7702 169.20343 233.45673 C 168.03448 234.14326 166.7403 234.4865 165.32086 234.4865 C 163.85504 234.4865 162.53303 234.14326 161.3548 233.45673 C 160.17657 232.7702 159.26044 231.83784 158.60639 230.6596 C 157.95233 229.48138 157.6253 228.18257 157.6253 226.76312 C 157.6253 225.27874 157.95233 223.9521 158.60639 222.78314 C 159.26044 221.6142 160.17193 220.69806 161.34088 220.03473 C 162.50983 219.3714 163.83648 219.03974 165.32086 219.03974 C 166.75886 219.03974 168.06231 219.38995 169.23126 220.0904 C 170.40022 220.79084 171.31866 221.73016 171.98664 222.9084 C 172.6546 224.08662 172.98859 225.37152 172.98859 226.76312 Z M 165.32086 231.6894 C 166.17438 231.6894 166.95831 231.46674 167.67267 231.02143 C 168.38703 230.5761 168.94366 229.97773 169.3426 229.22626 C 169.74152 228.4748 169.94098 227.65375 169.94098 226.76312 C 169.94098 225.89105 169.74152 225.0793 169.3426 224.32782 C 168.94366 223.57635 168.38703 222.971 167.67267 222.51178 C 166.95831 222.05255 166.1651 221.82294 165.29303 221.82294 C 164.43951 221.82294 163.65558 222.0479 162.94123 222.49787 C 162.22687 222.94782 161.6656 223.55316 161.25739 224.3139 C 160.84918 225.07465 160.64508 225.89105 160.64508 226.76312 C 160.64508 227.6352 160.84918 228.4516 161.25739 229.21234 C 161.6656 229.9731 162.2315 230.5761 162.95514 231.02143 C 163.67878 231.46674 164.46734 231.6894 165.32086 231.6894 Z" fill="white"/>
        </g>
        <g id="Graphic_47">
          <path d="M 181.71393 231.80072 C 183.00349 231.80072 184.39971 231.1745 185.90265 229.92206 L 185.90265 222.00385 L 183.31427 222.00385 L 183.31427 219.42938 L 188.78327 219.42938 L 188.78327 231.49457 L 191.28815 231.49457 L 191.28815 234.05512 L 185.90265 234.05512 L 185.90265 232.37128 C 184.21417 233.66084 182.6092 234.3056 181.0877 234.3056 C 179.71466 234.3056 178.70112 233.8974 178.04706 233.081 C 177.393 232.26459 177.06598 230.9101 177.06598 229.01752 L 177.06598 222.00385 L 175.02033 222.00385 L 175.02033 219.42938 L 179.9466 219.42938 L 179.9466 229.6159 C 179.9466 230.36738 180.08344 230.91937 180.35712 231.2719 C 180.6308 231.62445 181.08307 231.80072 181.71393 231.80072 Z" fill="white"/>
        </g>
        <g id="Graphic_48">
          <path d="M 198.32965 228.18256 L 198.32965 231.49457 L 201.51642 231.49457 L 201.51642 234.05512 L 192.5406 234.05512 L 192.5406 231.49457 L 195.47687 231.49457 L 195.47687 222.00385 L 192.5406 222.00385 L 192.5406 219.42938 L 197.7591 219.42938 L 197.7591 222.7414 C 198.34357 221.43328 199.06952 220.5218 199.93695 220.0069 C 200.8044 219.492 202.04522 219.23456 203.65949 219.23456 L 204.31354 219.23456 L 204.31354 222.143 L 203.68732 222.143 C 202.12872 222.143 200.96906 222.3471 200.20831 222.7553 C 199.44757 223.16352 198.94428 223.78045 198.69843 224.60614 C 198.45258 225.43183 198.32965 226.62396 198.32965 228.18256 Z" fill="white"/>
        </g>
        <g id="Graphic_49">
          <path d="M 224.38043 214.39179 L 224.38043 212.95844 L 226.94098 212.95844 L 226.94098 219.31806 L 224.38043 219.31806 L 224.38043 217.8708 C 223.29498 216.23797 221.81062 215.42157 219.9273 215.42157 C 218.7769 215.42157 217.89557 215.6535 217.28327 216.11737 C 216.67096 216.58124 216.3648 217.2492 216.3648 218.12128 C 216.3648 218.95624 216.65472 219.59174 217.23456 220.02777 C 217.8144 220.4638 218.7027 220.8349 219.89948 221.14105 L 222.3626 221.7951 C 223.9305 222.2126 225.13421 222.76459 225.97382 223.4511 C 226.81342 224.13764 227.36078 224.8659 227.6159 225.63593 C 227.87104 226.40595 227.9986 227.2641 227.9986 228.2104 C 227.9986 230.11226 227.40485 231.6198 226.21735 232.7331 C 225.02984 233.84638 223.4388 234.40302 221.44415 234.40302 C 219.5423 234.40302 217.81208 233.70722 216.25348 232.31561 L 216.25348 234.05512 L 213.63727 234.05512 L 213.63727 226.41522 L 216.25348 226.41522 L 216.25348 228.26605 C 217.50593 230.56685 219.13872 231.71723 221.15192 231.71723 C 222.33015 231.71723 223.24396 231.4134 223.89337 230.80573 C 224.5428 230.19806 224.8675 229.34223 224.8675 228.23822 C 224.8675 226.73529 223.8099 225.6916 221.69464 225.10712 L 219.07843 224.36957 C 217.19512 223.83148 215.80353 223.10322 214.90363 222.18476 C 214.00372 221.2663 213.55377 220.0556 213.55377 218.55268 C 213.55377 216.70647 214.0988 215.27546 215.1889 214.25958 C 216.279 213.2437 217.78423 212.73578 219.70465 212.73578 C 221.37458 212.73578 222.93316 213.28778 224.38043 214.39179 Z" fill="white"/>
        </g>
        <g id="Graphic_50">
          <path d="M 236.23688 219.42938 L 236.23688 222.00385 L 233.565 222.00385 L 233.565 229.67157 C 233.565 230.46943 233.65082 230.98663 233.82245 231.2232 C 233.99408 231.45978 234.28864 231.57807 234.70612 231.57807 C 235.21637 231.57807 235.72662 231.48993 236.23688 231.31366 L 236.23688 233.91596 C 235.34625 234.17572 234.62726 234.3056 234.0799 234.3056 C 232.87384 234.3056 232.0064 234.00178 231.4776 233.3941 C 230.9488 232.78644 230.6844 231.74507 230.6844 230.26996 L 230.6844 222.00385 L 228.7779 222.00385 L 228.7779 219.42938 L 230.6844 219.42938 L 230.6844 217.21674 L 233.565 214.5866 L 233.565 219.42938 Z" fill="white"/>
        </g>
        <g id="Graphic_51">
          <path d="M 250.6678 224.59223 L 250.6678 231.49457 L 253.117 231.49457 L 253.117 234.05512 L 248.13507 234.05512 L 248.13507 232.25995 C 246.74346 233.62373 245.19416 234.3056 243.48712 234.3056 C 242.58722 234.3056 241.76386 234.09687 241.01703 233.67938 C 240.2702 233.2619 239.67182 232.70295 239.22186 232.0025 C 238.7719 231.30206 238.54694 230.5251 238.54694 229.67157 C 238.54694 228.7531 238.7951 227.9344 239.29144 227.2154 C 239.78779 226.4964 240.45807 225.94208 241.3023 225.55243 C 242.14655 225.16278 242.99542 224.96796 243.84894 224.96796 C 245.27766 224.96796 246.60894 225.38543 247.84284 226.2204 L 247.84284 224.6479 C 247.84284 223.50677 247.60163 222.69037 247.1192 222.19867 C 246.63678 221.70697 245.84357 221.46112 244.73956 221.46112 C 243.96026 221.46112 243.30854 221.6026 242.78436 221.88556 C 242.2602 222.16852 241.82648 222.5976 241.48322 223.1728 L 238.72785 222.4909 C 239.34943 221.33123 240.18902 220.46613 241.24664 219.89557 C 242.30427 219.325 243.56133 219.03974 245.01789 219.03974 C 246.9754 219.03974 248.40643 219.48504 249.31098 220.37567 C 250.21552 221.2663 250.6678 222.6718 250.6678 224.59223 Z M 243.87677 232.09296 C 245.28694 232.09296 246.60894 231.50385 247.84284 230.32562 L 247.84284 228.61395 C 246.5904 227.63983 245.33796 227.15277 244.0855 227.15277 C 243.32477 227.15277 242.6684 227.39166 242.1164 227.86945 C 241.5644 228.34723 241.2884 228.94794 241.2884 229.67157 C 241.2884 230.36738 241.5296 230.94489 242.01203 231.40412 C 242.49445 231.86335 243.11603 232.09296 243.87677 232.09296 Z" fill="white"/>
        </g>
        <g id="Graphic_52">
          <path d="M 262.065 219.42938 L 262.065 222.00385 L 259.39313 222.00385 L 259.39313 229.67157 C 259.39313 230.46943 259.47894 230.98663 259.65058 231.2232 C 259.8222 231.45978 260.11676 231.57807 260.53424 231.57807 C 261.0445 231.57807 261.55475 231.48993 262.065 231.31366 L 262.065 233.91596 C 261.17437 234.17572 260.4554 234.3056 259.90802 234.3056 C 258.70196 234.3056 257.83454 234.00178 257.30573 233.3941 C 256.77692 232.78644 256.5125 231.74507 256.5125 230.26996 L 256.5125 222.00385 L 254.60602 222.00385 L 254.60602 219.42938 L 256.5125 219.42938 L 256.5125 217.21674 L 259.39313 214.5866 L 259.39313 219.42938 Z" fill="white"/>
        </g>
        <g id="Graphic_53">
          <path d="M 272.90558 220.0556 L 272.90558 219.42938 L 275.41046 219.42938 L 275.41046 224.28607 L 272.90558 224.28607 L 272.90558 223.39545 C 272.0706 222.19867 270.9295 221.60028 269.48224 221.60028 C 268.7215 221.60028 268.09992 221.76727 267.6175 222.10126 C 267.13507 222.43525 266.89386 222.86664 266.89386 223.39545 C 266.89386 223.8686 267.0771 224.23969 267.44354 224.50873 C 267.81 224.77777 268.63336 225.01434 269.91364 225.21845 L 271.84796 225.59418 C 274.73323 226.123 276.17584 227.53777 276.17584 229.83856 C 276.17584 231.18379 275.654 232.26459 274.6103 233.081 C 273.5666 233.8974 272.18196 234.3056 270.45636 234.3056 C 269.76983 234.3056 269.0949 234.20587 268.43158 234.0064 C 267.76825 233.80695 267.21393 233.55878 266.76862 233.2619 L 266.76862 234.05512 L 264.20807 234.05512 L 264.20807 229.04535 L 266.76862 229.04535 L 266.76862 229.54633 C 266.90778 230.2514 267.29974 230.81732 267.94452 231.24408 C 268.5893 231.67084 269.33844 231.88422 270.19196 231.88422 C 271.12897 231.88422 271.8665 231.71955 272.4046 231.3902 C 272.9427 231.06085 273.21173 230.57148 273.21173 229.92206 C 273.21173 229.4489 272.99836 229.09406 272.5716 228.85749 C 272.14484 228.6209 271.2867 228.37738 269.99713 228.1269 L 268.50812 227.80683 C 267.033 227.50995 265.9522 226.9997 265.2657 226.27606 C 264.57916 225.55243 264.2359 224.62934 264.2359 223.50678 C 264.2359 222.5976 264.4887 221.82062 264.99433 221.17584 C 265.49994 220.53107 266.14703 220.04633 266.9356 219.72162 C 267.7242 219.3969 268.53595 219.23456 269.3709 219.23456 C 270.7718 219.23456 271.95 219.50824 272.90558 220.0556 Z" fill="white"/>
        </g>
        <g id="Graphic_54">
          <path d="M 295.61652 216.01996 L 293.05597 216.4096 C 292.97247 215.46332 292.61066 214.99018 291.97052 214.99018 C 291.51593 214.99018 291.2121 215.15253 291.05902 215.47724 C 290.90595 215.80194 290.8294 216.38177 290.8294 217.21674 L 290.8294 219.42938 L 293.3343 219.42938 L 293.3343 222.00385 L 290.8294 222.00385 L 290.8294 231.49457 L 293.58478 231.49457 L 293.58478 234.05512 L 285.80573 234.05512 L 285.80573 231.49457 L 287.9488 231.49457 L 287.9488 222.00385 L 285.80573 222.00385 L 285.80573 219.42938 L 287.9488 219.42938 L 287.9488 217.16107 C 287.9488 215.82513 288.2758 214.7397 288.92987 213.90473 C 289.58393 213.06976 290.55108 212.65228 291.83136 212.65228 C 292.889 212.65228 293.74017 212.93292 294.38495 213.4942 C 295.02973 214.05549 295.44025 214.8974 295.61652 216.01996 Z" fill="white"/>
        </g>
        <g id="Graphic_55">
          <path d="M 310.43707 226.76312 C 310.43707 228.18257 310.09846 229.48138 309.4212 230.6596 C 308.74396 231.83784 307.82087 232.7702 306.65192 233.45673 C 305.48297 234.14326 304.1888 234.4865 302.76935 234.4865 C 301.30352 234.4865 299.9815 234.14326 298.8033 233.45673 C 297.62506 232.7702 296.70893 231.83784 296.05487 230.6596 C 295.4008 229.48138 295.0738 228.18257 295.0738 226.76312 C 295.0738 225.27874 295.4008 223.9521 296.05487 222.78314 C 296.70893 221.6142 297.62042 220.69806 298.78937 220.03473 C 299.95832 219.3714 301.28497 219.03974 302.76935 219.03974 C 304.20735 219.03974 305.5108 219.38995 306.67975 220.0904 C 307.8487 220.79084 308.76715 221.73016 309.43512 222.9084 C 310.1031 224.08662 310.43707 225.37152 310.43707 226.76312 Z M 302.76935 231.6894 C 303.62287 231.6894 304.4068 231.46674 305.12116 231.02143 C 305.8355 230.5761 306.39215 229.97773 306.79108 229.22626 C 307.19 228.4748 307.38947 227.65375 307.38947 226.76312 C 307.38947 225.89105 307.19 225.0793 306.79108 224.32782 C 306.39215 223.57635 305.8355 222.971 305.12116 222.51178 C 304.4068 222.05255 303.6136 221.82294 302.7415 221.82294 C 301.888 221.82294 301.10407 222.0479 300.3897 222.49787 C 299.67535 222.94782 299.11408 223.55316 298.70587 224.3139 C 298.29767 225.07465 298.09357 225.89105 298.09357 226.76312 C 298.09357 227.6352 298.29767 228.4516 298.70587 229.21234 C 299.11408 229.9731 299.68 230.5761 300.40363 231.02143 C 301.12726 231.46674 301.91583 231.6894 302.76935 231.6894 Z" fill="white"/>
        </g>
        <g id="Graphic_56">
          <path d="M 317.9378 228.18256 L 317.9378 231.49457 L 321.12457 231.49457 L 321.12457 234.05512 L 312.14874 234.05512 L 312.14874 231.49457 L 315.08502 231.49457 L 315.08502 222.00385 L 312.14874 222.00385 L 312.14874 219.42938 L 317.36725 219.42938 L 317.36725 222.7414 C 317.95173 221.43328 318.67767 220.5218 319.5451 220.0069 C 320.41254 219.492 321.65338 219.23456 323.26764 219.23456 L 323.9217 219.23456 L 323.9217 222.143 L 323.29547 222.143 C 321.73687 222.143 320.5772 222.3471 319.81647 222.7553 C 319.05572 223.16352 318.55243 223.78045 318.3066 224.60614 C 318.06073 225.43183 317.9378 226.62396 317.9378 228.18256 Z" fill="white"/>
        </g>
        <g id="Graphic_57">
          <path d="M 347.4676 219.20673 L 347.4676 215.6999 L 338.49176 215.6999 L 338.49176 221.94818 L 346.29865 221.94818 L 346.29865 224.5644 L 338.49176 224.5644 L 338.49176 231.4389 L 347.4676 231.4389 L 347.4676 227.612 L 350.05597 227.612 L 350.05597 234.05512 L 332.6192 234.05512 L 332.6192 231.4389 L 335.3189 231.4389 L 335.3189 215.6999 L 332.6192 215.6999 L 332.6192 213.08368 L 350.05597 213.08368 L 350.05597 219.20673 Z" fill="white"/>
        </g>
        <g id="Graphic_58">
          <path d="M 357.09748 222.00385 L 360.2564 230.2978 L 363.40143 222.00385 L 361.3697 222.00385 L 361.3697 219.42938 L 368.38336 219.42938 L 368.38336 222.00385 L 366.1568 222.00385 L 361.49494 234.3056 L 358.89264 234.3056 L 354.13336 222.00385 L 351.545 222.00385 L 351.545 219.42938 L 359.00397 219.42938 L 359.00397 222.00385 Z" fill="white"/>
        </g>
        <g id="Graphic_59">
          <path d="M 385.3748 227.47284 L 373.1148 227.47284 C 373.2911 228.87373 373.8338 229.98004 374.743 230.7918 C 375.65217 231.60358 376.76544 232.00946 378.08283 232.00946 C 379.04768 232.00946 379.94293 231.81 380.7686 231.41107 C 381.5943 231.01215 382.28546 230.39985 382.8421 229.57416 L 385.3748 230.71527 C 384.57696 231.95844 383.53095 232.89777 382.23676 233.53327 C 380.94256 234.16877 379.53474 234.4865 378.01325 234.4865 C 376.4361 234.4865 375.03523 234.15717 373.8106 233.49848 C 372.586 232.83978 371.63276 231.92133 370.95087 230.7431 C 370.269 229.56488 369.92804 228.23823 369.92804 226.76312 C 369.92804 225.2973 370.26434 223.9753 370.93695 222.79706 C 371.60956 221.61883 372.53033 220.69806 373.6993 220.03473 C 374.86823 219.3714 376.15777 219.03974 377.56793 219.03974 C 379.108 219.03974 380.45086 219.38068 381.5966 220.06256 C 382.7424 220.74445 383.6446 221.71856 384.3033 222.98493 C 384.962 224.2513 385.31915 225.74725 385.3748 227.47284 Z M 377.6236 221.4333 C 376.53814 221.4333 375.58723 221.79742 374.7708 222.5257 C 373.9544 223.25397 373.43024 224.2165 373.1983 225.41327 L 382.35504 225.41327 C 382.086 224.2165 381.51545 223.25397 380.64337 222.5257 C 379.7713 221.79742 378.7647 221.4333 377.6236 221.4333 Z" fill="white"/>
        </g>
        <g id="Graphic_60">
          <path d="M 392.87555 228.18256 L 392.87555 231.49457 L 396.0623 231.49457 L 396.0623 234.05512 L 387.0865 234.05512 L 387.0865 231.49457 L 390.02277 231.49457 L 390.02277 222.00385 L 387.0865 222.00385 L 387.0865 219.42938 L 392.305 219.42938 L 392.305 222.7414 C 392.88947 221.43328 393.6154 220.5218 394.48285 220.0069 C 395.3503 219.492 396.5911 219.23456 398.2054 219.23456 L 398.85944 219.23456 L 398.85944 222.143 L 398.2332 222.143 C 396.6746 222.143 395.51496 222.3471 394.7542 222.7553 C 393.99347 223.16352 393.49018 223.78045 393.24433 224.60614 C 392.99847 225.43183 392.87555 226.62396 392.87555 228.18256 Z" fill="white"/>
        </g>
        <g id="Graphic_61">
          <path d="M 405.98444 222.00385 L 409.1573 230.26996 L 412.23273 222.00385 L 410.2845 222.00385 L 410.2845 219.42938 L 417.27033 219.42938 L 417.27033 222.00385 L 415.11334 222.00385 L 407.89093 240.60956 L 403.02033 240.60956 L 403.02033 238.10468 L 405.90094 238.10468 L 407.64044 233.80463 L 402.85333 222.00385 L 400.4041 222.00385 L 400.4041 219.42938 L 407.72394 219.42938 L 407.72394 222.00385 Z" fill="white"/>
        </g>
        <g id="Graphic_62">
          <path d="M 433.3294 226.76312 C 433.3294 228.18257 432.9908 229.48138 432.31354 230.6596 C 431.6363 231.83784 430.7132 232.7702 429.54425 233.45673 C 428.3753 234.14326 427.0811 234.4865 425.6617 234.4865 C 424.19586 234.4865 422.87385 234.14326 421.6956 233.45673 C 420.5174 232.7702 419.60126 231.83784 418.9472 230.6596 C 418.29315 229.48138 417.96613 228.18257 417.96613 226.76312 C 417.96613 225.27874 418.29315 223.9521 418.9472 222.78314 C 419.60126 221.6142 420.51275 220.69806 421.6817 220.03473 C 422.85065 219.3714 424.1773 219.03974 425.6617 219.03974 C 427.0997 219.03974 428.40313 219.38995 429.5721 220.0904 C 430.74104 220.79084 431.6595 221.73016 432.32746 222.9084 C 432.99543 224.08662 433.3294 225.37152 433.3294 226.76312 Z M 425.6617 231.6894 C 426.5152 231.6894 427.29913 231.46674 428.0135 231.02143 C 428.72785 230.5761 429.2845 229.97773 429.6834 229.22626 C 430.08234 228.4748 430.2818 227.65375 430.2818 226.76312 C 430.2818 225.89105 430.08234 225.0793 429.6834 224.32782 C 429.2845 223.57635 428.72785 222.971 428.0135 222.51178 C 427.29913 222.05255 426.50593 221.82294 425.63385 221.82294 C 424.78033 221.82294 423.9964 222.0479 423.28205 222.49787 C 422.5677 222.94782 422.0064 223.55316 421.5982 224.3139 C 421.19 225.07465 420.9859 225.89105 420.9859 226.76312 C 420.9859 227.6352 421.19 228.4516 421.5982 229.21234 C 422.0064 229.9731 422.5723 230.5761 423.29596 231.02143 C 424.0196 231.46674 424.80816 231.6894 425.6617 231.6894 Z" fill="white"/>
        </g>
        <g id="Graphic_63">
          <path d="M 449.43024 224.2165 L 449.43024 231.49457 L 451.87946 231.49457 L 451.87946 234.05512 L 446.5496 234.05512 L 446.5496 224.3974 C 446.5496 223.47894 446.4174 222.82026 446.153 222.42133 C 445.8886 222.0224 445.4549 221.82294 444.85187 221.82294 C 443.5716 221.82294 442.1336 222.4538 440.5379 223.71552 L 440.5379 231.49457 L 443.0567 231.49457 L 443.0567 234.05512 L 435.1246 234.05512 L 435.1246 231.49457 L 437.69904 231.49457 L 437.69904 222.00385 L 435.1246 222.00385 L 435.1246 219.42938 L 440.5379 219.42938 L 440.5379 221.19672 C 442.32844 219.8886 444.01226 219.23456 445.5894 219.23456 C 446.89753 219.23456 447.8647 219.63812 448.4909 220.44525 C 449.11713 221.25239 449.43024 222.50945 449.43024 224.2165 Z" fill="white"/>
        </g>
        <g id="Graphic_64">
          <path d="M 468.9544 227.47284 L 456.6944 227.47284 C 456.87067 228.87373 457.4134 229.98004 458.3226 230.7918 C 459.23176 231.60358 460.345 232.00946 461.6624 232.00946 C 462.62727 232.00946 463.5225 231.81 464.3482 231.41107 C 465.1739 231.01215 465.86505 230.39985 466.4217 229.57416 L 468.9544 230.71527 C 468.15655 231.95844 467.11054 232.89777 465.81635 233.53327 C 464.52215 234.16877 463.11433 234.4865 461.59284 234.4865 C 460.0157 234.4865 458.6148 234.15717 457.3902 233.49848 C 456.1656 232.83978 455.21235 231.92133 454.53046 230.7431 C 453.84857 229.56488 453.50763 228.23823 453.50763 226.76312 C 453.50763 225.2973 453.84393 223.9753 454.51654 222.79706 C 455.18915 221.61883 456.1099 220.69806 457.27887 220.03473 C 458.4478 219.3714 459.73736 219.03974 461.1475 219.03974 C 462.68757 219.03974 464.03045 219.38068 465.1762 220.06256 C 466.32197 220.74445 467.2242 221.71856 467.8829 222.98493 C 468.54157 224.2513 468.89874 225.74725 468.9544 227.47284 Z M 461.2032 221.4333 C 460.11773 221.4333 459.1668 221.79742 458.3504 222.5257 C 457.534 223.25397 457.00983 224.2165 456.7779 225.41327 L 465.93463 225.41327 C 465.6656 224.2165 465.09504 223.25397 464.22296 222.5257 C 463.3509 221.79742 462.3443 221.4333 461.2032 221.4333 Z" fill="white"/>
        </g>
      </g>
    </g>
  </g>
</svg>
